<svg width="45" height="45" viewBox="0 0 45 45" fill="none" xmlns="http://www.w3.org/2000/svg">
<path fill-rule="evenodd" clip-rule="evenodd" d="M22.5 -7.21037e-07C10.0752 -7.21037e-07 0 10.328 0 23.0697C0 33.2621 6.44694 41.9096 15.3869 44.9601C16.5114 45.1736 16.9242 44.4596 16.9242 43.8503C16.9242 43.3006 16.9033 41.4829 16.8936 39.5552C10.6341 40.9507 9.31327 36.8333 9.31327 36.8333C8.28977 34.1671 6.81505 33.4577 6.81505 33.4577C4.77363 32.0259 6.96893 32.0553 6.96893 32.0553C9.22832 32.218 10.418 34.433 10.418 34.433C12.4248 37.9595 15.6816 36.9399 16.9655 36.3504C17.1679 34.8597 17.7506 33.8416 18.3941 33.2655C13.3965 32.6826 8.14297 30.7041 8.14297 21.8644C8.14297 19.3461 9.02191 17.2878 10.4612 15.6722C10.2276 15.0911 9.45747 12.7447 10.6796 9.56704C10.6796 9.56704 12.569 8.9474 16.8683 11.9322C18.6631 11.421 20.5879 11.1647 22.5 11.1555C24.4121 11.1647 26.3384 11.421 28.1365 11.9322C32.431 8.9474 34.3178 9.56704 34.3178 9.56704C35.5425 12.7447 34.7724 15.0911 34.5388 15.6722C35.9814 17.2878 36.8541 19.3461 36.8541 21.8644C36.8541 30.7255 31.5905 32.6761 26.5802 33.2472C27.3873 33.9631 28.1064 35.3671 28.1064 37.5194C28.1064 40.6061 28.0807 43.0905 28.0807 43.8503C28.0807 44.4646 28.4853 45.1836 29.6258 44.9574C38.5613 41.9035 45 33.2591 45 23.0697C45 10.328 34.9263 -7.21037e-07 22.5 -7.21037e-07Z" fill="white"/>
<path d="M8.52205 33.1227C8.47249 33.2377 8.29663 33.2721 8.13642 33.1934C7.97285 33.1178 7.88156 32.9615 7.93447 32.8465C7.98291 32.7289 8.15877 32.696 8.32197 32.7747C8.48516 32.85 8.57831 33.0077 8.52205 33.1227Z" fill="white"/>
<path d="M9.43351 34.1651C9.3262 34.2671 9.11606 34.2197 8.97411 34.0585C8.82656 33.8976 8.79936 33.6822 8.90816 33.579C9.01882 33.477 9.22225 33.5248 9.36943 33.6856C9.51697 33.8484 9.54566 34.0615 9.43351 34.1651Z" fill="white"/>
<path d="M10.3206 35.4936C10.1827 35.5921 9.95696 35.5001 9.81761 35.2949C9.67975 35.0894 9.67975 34.8434 9.82096 34.7448C9.96031 34.6463 10.1827 34.7353 10.324 34.9385C10.4614 35.1471 10.4614 35.3931 10.3206 35.4936Z" fill="white"/>
<path d="M11.5359 36.7774C11.4126 36.9168 11.1499 36.8794 10.9576 36.6887C10.7609 36.5031 10.7061 36.2391 10.8295 36.0997C10.9547 35.9598 11.2188 35.9992 11.4126 36.1879C11.6078 36.3736 11.667 36.6395 11.5359 36.7774Z" fill="white"/>
<path d="M13.2125 37.5227C13.1578 37.7034 12.9052 37.7852 12.6503 37.7084C12.3958 37.6293 12.2293 37.418 12.2807 37.2354C12.3336 37.0536 12.5877 36.968 12.8444 37.0501C13.0985 37.1288 13.2655 37.339 13.2125 37.5227Z" fill="white"/>
<path d="M15.054 37.6608C15.0604 37.8511 14.8443 38.0088 14.5767 38.0123C14.3077 38.0184 14.0898 37.8644 14.0868 37.6772C14.0868 37.4851 14.2984 37.3292 14.5671 37.3242C14.8346 37.3189 15.054 37.4721 15.054 37.6608Z" fill="white"/>
<path d="M16.7674 37.3619C16.7995 37.5472 16.6136 37.7378 16.3479 37.7886C16.0867 37.8379 15.8449 37.7229 15.8117 37.5392C15.7793 37.3489 15.9682 37.1583 16.2294 37.109C16.4954 37.0616 16.7335 37.1732 16.7674 37.3619Z" fill="white"/>
</svg>
