<svg width="45" height="37" viewBox="0 0 45 37" fill="none" xmlns="http://www.w3.org/2000/svg">
<path d="M45 4.32938C43.3444 5.06438 41.565 5.55937 39.6975 5.7825C41.6044 4.64062 43.0687 2.83125 43.7569 0.675C41.9737 1.7325 39.9975 2.50125 37.8937 2.91563C36.2119 1.12125 33.81 0 31.155 0C25.1944 0 20.8144 5.56125 22.1606 11.3344C14.49 10.95 7.6875 7.275 3.13313 1.68938C0.714375 5.83875 1.87875 11.2669 5.98875 14.0156C4.4775 13.9669 3.0525 13.5525 1.80937 12.8606C1.70812 17.1375 4.77375 21.1387 9.21375 22.0294C7.91438 22.3819 6.49125 22.4644 5.04375 22.1869C6.2175 25.8544 9.62625 28.5225 13.6687 28.5975C9.7875 31.6406 4.8975 33 0 32.4225C4.08562 35.0419 8.94 36.57 14.1525 36.57C31.2938 36.57 40.9781 22.0931 40.3931 9.10875C42.1969 7.80562 43.7625 6.18 45 4.32938V4.32938Z" fill="#5BB0FF"/>
</svg>
